External Loads File
version=1
nRows=85
nColumns=13
Range=5.000000e-03-10 seconds
endheader
time 	forceRightX 	forceRightY 	forceRightZ 	pointRightX 	pointRightY 	pointRightZ 	forceLeftX 	forceLeftY 	forceLeftZ 	pointLeftX 	pointLeftY 	pointLeftZ 		
7.505000 80.782660 488.027485 -0.000000 0.349189 0.162670 -0.125183 -17.023214 -83.910900 -0.000000 0.257741 0.481720 -0.362819
7.510000 92.875956 447.452533 -0.000000 0.340583 0.159157 -0.125127 -24.458878 -86.276513 -0.000000 0.266781 0.485700 -0.363135
7.515000 102.090305 403.162046 -0.000000 0.332015 0.156443 -0.125124 -31.238175 -88.039794 -0.000000 0.276018 0.488907 -0.363610
7.520000 108.424111 356.245757 -0.000000 0.323321 0.154099 -0.125127 -37.393053 -89.102707 -0.000000 0.285204 0.491398 -0.363885
7.525000 111.905049 307.808988 -0.000000 0.314483 0.152508 -0.125099 -42.945221 -89.306787 -0.000000 0.294354 0.493281 -0.364347
7.530000 112.470176 259.016070 -0.000000 0.305751 0.151465 -0.125107 -47.865694 -88.473596 -0.000000 0.303474 0.494354 -0.364834
7.535000 110.414248 210.916280 -0.000000 0.296827 0.150984 -0.124977 -52.211518 -86.357117 -0.000000 0.312285 0.494829 -0.365275
7.540000 105.864430 164.629160 -0.000000 0.288262 0.151207 -0.125007 -55.973783 -82.738858 -0.000000 0.320899 0.494571 -0.365694
7.545000 99.542595 120.850885 -0.000000 0.279692 0.151957 -0.124982 -59.441672 -77.200022 -0.000000 0.329568 0.493667 -0.365988
7.550000 91.607084 80.508705 -0.000000 0.271231 0.153198 -0.124908 -62.665268 -69.497542 -0.000000 0.337877 0.492105 -0.366306
7.555000 82.560488 44.198013 -0.000000 0.262946 0.155117 -0.124828 -65.889698 -59.322943 -0.000000 0.346001 0.489818 -0.366653
7.560000 72.845059 12.411300 -0.000000 0.254719 0.157628 -0.124669 -69.356082 -46.462736 -0.000000 0.353962 0.486830 -0.367079
7.565000 62.879284 -14.388554 -0.000000 0.246689 0.160598 -0.124572 -73.229582 -30.956466 -0.000000 0.361354 0.482850 -0.367189
7.570000 53.066058 -36.107487 -0.000000 0.238793 0.164192 -0.124430 -77.783378 -12.798983 -0.000000 0.368788 0.478394 -0.367652
7.575000 43.755581 -52.660351 -0.000000 0.231008 0.168301 -0.124353 -83.160807 7.702211 -0.000000 0.375867 0.473096 -0.367978
7.580000 35.264381 -64.193502 -0.000000 0.223401 0.173001 -0.124299 -89.496932 30.156745 -0.000000 0.382698 0.467161 -0.368407
7.585000 27.834857 -71.010273 -0.000000 0.216011 0.178419 -0.124276 -96.836951 54.066956 -0.000000 0.389315 0.460523 -0.368804
7.590000 21.763879 -73.478180 -0.000000 0.208961 0.184191 -0.124197 -105.201812 78.648651 -0.000000 0.395634 0.453308 -0.369343
7.595000 17.106756 -72.116128 -0.000000 0.202150 0.190822 -0.124192 -114.352940 103.285747 -0.000000 0.401659 0.445456 -0.369846
7.600000 13.996787 -67.457070 -0.000000 0.195693 0.197909 -0.124214 -124.114728 127.203789 -0.000000 0.407617 0.437172 -0.370052
7.605000 12.500214 -60.104267 -0.000000 0.189591 0.205485 -0.124179 -134.382717 149.767194 -0.000000 0.413217 0.428567 -0.370284
7.610000 12.511560 -50.739157 -0.000000 0.183951 0.213604 -0.124142 -144.887324 170.762840 -0.000000 0.418603 0.419528 -0.370539
7.615000 13.892419 -40.034277 -0.000000 0.178708 0.222222 -0.124120 -155.472958 190.119837 -0.000000 0.423466 0.410033 -0.370789
7.620000 16.416013 -28.573907 -0.000000 0.174053 0.231241 -0.124050 -165.967833 207.974370 -0.000000 0.428133 0.400300 -0.370868
7.625000 19.820570 -16.820867 -0.000000 0.170004 0.240639 -0.123973 -176.066535 224.688833 -0.000000 0.432818 0.390379 -0.370955
7.630000 23.915853 -5.113136 -0.000000 0.166351 0.250353 -0.123958 -185.818937 240.443581 -0.000000 0.436701 0.380325 -0.370951
7.635000 28.536543 6.216882 -0.000000 0.163283 0.260183 -0.124013 -195.126555 255.633349 -0.000000 0.439929 0.370072 -0.370982
7.640000 33.573284 16.750868 -0.000000 0.160801 0.270256 -0.124022 -203.644319 270.905546 -0.000000 0.442779 0.359595 -0.370958
7.645000 38.860754 26.083081 -0.000000 0.158821 0.280186 -0.124130 -211.603574 286.462688 -0.000000 0.445222 0.348934 -0.370777
7.650000 44.214896 33.649025 -0.000000 0.157456 0.291075 -0.124171 -217.917188 303.362423 -0.000000 0.447044 0.338232 -0.370746
7.655000 49.145578 39.223077 -0.000000 0.156716 0.301797 -0.124238 -223.136646 321.290399 -0.000000 0.448205 0.327361 -0.370657
7.660000 53.188695 42.633830 -0.000000 0.156567 0.312707 -0.124343 -226.583903 340.707422 -0.000000 0.448765 0.316422 -0.370462
7.665000 55.873120 44.042163 -0.000000 0.157226 0.323761 -0.124378 -227.994353 361.649777 -0.000000 0.448784 0.305527 -0.370694
7.670000 56.862999 43.833521 -0.000000 0.158411 0.334745 -0.124600 -227.148449 383.973465 -0.000000 0.448212 0.294644 -0.370927
7.675000 56.039746 42.452219 -0.000000 0.160276 0.345668 -0.124842 -223.592535 407.517636 -0.000000 0.446734 0.283844 -0.370353
7.680000 53.468787 40.317993 -0.000000 0.162732 0.356543 -0.125168 -216.861262 431.990695 -0.000000 0.443724 0.273320 -0.369090
7.685000 49.251709 37.871189 -0.000000 0.165768 0.367027 -0.125481 -207.639652 456.496467 -0.000000 0.441089 0.262879 -0.369012
7.690000 43.678498 35.239491 -0.000000 0.168821 0.378138 -0.126519 -195.252922 480.880924 -0.000000 0.438819 0.252611 -0.369958
7.695000 36.899183 32.636549 -0.000000 0.173197 0.387798 -0.126792 -180.778680 504.296709 -0.000000 0.434964 0.242529 -0.369881
7.700000 29.250398 30.037393 -0.000000 0.178270 0.397781 -0.127005 -162.704791 526.922323 -0.000000 0.430507 0.232731 -0.369687
7.705000 20.897212 27.681191 -0.000000 0.183651 0.407449 -0.127309 -142.707907 547.774904 -0.000000 0.425528 0.223267 -0.369578
7.710000 12.178346 25.717669 -0.000000 0.189773 0.416963 -0.127389 -120.427563 566.568070 -0.000000 0.419995 0.214155 -0.369356
7.715000 3.377454 24.386749 -0.000000 0.196066 0.426309 -0.127821 -97.167315 582.613910 -0.000000 0.413934 0.205535 -0.369112
7.720000 -5.141564 23.870644 -0.000000 0.203533 0.434805 -0.127298 -72.826646 595.605193 -0.000000 0.407348 0.197395 -0.368912
7.725000 -13.118607 24.279090 -0.000000 0.210264 0.443146 -0.128166 -49.652630 605.010116 -0.000000 0.400344 0.189679 -0.368770
7.730000 -20.082518 25.774470 -0.000000 0.219228 0.451086 -0.127291 -23.691045 610.865322 -0.000000 0.392864 0.182370 -0.368544
7.735000 -26.102360 28.129174 -0.000000 0.226118 0.458529 -0.128392 -2.493396 612.457773 -0.000000 0.385118 0.175532 -0.368479
7.740000 -30.798408 31.388002 -0.000000 0.234363 0.465211 -0.128665 19.097006 609.653887 -0.000000 0.377028 0.169225 -0.368425
7.745000 -34.163905 35.280274 -0.000000 0.242838 0.471769 -0.128877 39.712058 601.952352 -0.000000 0.368528 0.163547 -0.368207
7.750000 -36.357585 39.392959 -0.000000 0.251132 0.477232 -0.128961 57.665414 589.123985 -0.000000 0.359730 0.158629 -0.368121
7.755000 -37.465896 43.471785 -0.000000 0.259692 0.482306 -0.129003 74.268929 570.918213 -0.000000 0.350681 0.154365 -0.368033
7.760000 -37.748086 47.248461 -0.000000 0.268338 0.486881 -0.129130 89.187962 547.370808 -0.000000 0.341396 0.150683 -0.367865
7.765000 -37.509305 50.620738 -0.000000 0.277106 0.490878 -0.129169 102.288236 518.700976 -0.000000 0.331938 0.147742 -0.367740
7.770000 -37.043342 53.683619 -0.000000 0.285991 0.494225 -0.128938 113.537320 485.282879 -0.000000 0.322302 0.145505 -0.367707
7.775000 -36.666980 56.637304 -0.000000 0.294702 0.496758 -0.128843 122.236030 447.799577 -0.000000 0.312676 0.143950 -0.367427
7.780000 -36.516162 59.856050 -0.000000 0.303556 0.498590 -0.128740 128.764978 406.772440 -0.000000 0.303089 0.142947 -0.367258
7.785000 -36.812445 63.661911 -0.000000 0.312118 0.499655 -0.128399 132.473420 363.071111 -0.000000 0.293648 0.142840 -0.366843
7.790000 -37.564894 68.469748 -0.000000 0.320689 0.500159 -0.128119 133.805131 317.294608 -0.000000 0.284282 0.143388 -0.366541
7.795000 -38.825638 74.582149 -0.000000 0.329088 0.499862 -0.127854 132.530606 270.341436 -0.000000 0.275099 0.144503 -0.366190
7.800000 -40.627097 82.194484 -0.000000 0.337283 0.499111 -0.127527 128.572907 223.185132 -0.000000 0.266354 0.146348 -0.365891
7.805000 -42.890931 91.451725 -0.000000 0.345264 0.497428 -0.127195 122.388711 176.637971 -0.000000 0.257745 0.148733 -0.365564
7.810000 -45.696921 102.356553 -0.000000 0.353046 0.495047 -0.126904 114.164871 131.756416 -0.000000 0.249415 0.151804 -0.365225
7.815000 -49.129743 114.850678 -0.000000 0.360681 0.492010 -0.126681 104.264869 89.579771 -0.000000 0.241377 0.155419 -0.364922
7.820000 -53.182893 128.822545 -0.000000 0.368215 0.488079 -0.126707 93.155277 51.046590 -0.000000 0.233554 0.159587 -0.364651
7.825000 -57.991542 143.997263 -0.000000 0.375466 0.483516 -0.126395 81.244752 17.130641 -0.000000 0.226002 0.164282 -0.364636
7.830000 -63.538359 160.070420 -0.000000 0.382489 0.478325 -0.126003 69.089578 -11.463046 -0.000000 0.218708 0.169523 -0.364270
7.835000 -69.763862 176.684610 -0.000000 0.389297 0.472120 -0.125889 57.265315 -34.214180 -0.000000 0.211793 0.175216 -0.363909
7.840000 -76.709775 193.413541 -0.000000 0.395782 0.465507 -0.125744 46.400215 -50.802322 -0.000000 0.205050 0.181353 -0.363702
7.845000 -84.245354 209.898869 -0.000000 0.401979 0.458294 -0.125734 37.102906 -61.251974 -0.000000 0.198573 0.187984 -0.363734
7.850000 -92.080906 225.862173 -0.000000 0.408210 0.450547 -0.125417 29.877325 -65.900717 -0.000000 0.192316 0.195044 -0.363858
7.855000 -100.264085 240.934514 -0.000000 0.413971 0.442274 -0.125274 25.184439 -65.303753 -0.000000 0.186339 0.202657 -0.364077
7.860000 -108.804494 254.845340 -0.000000 0.419059 0.433478 -0.124945 23.246138 -60.255107 -0.000000 0.180701 0.210657 -0.364157
7.865000 -116.691569 267.884174 -0.000000 0.424747 0.424124 -0.125159 23.842669 -51.775588 -0.000000 0.175436 0.219205 -0.364070
7.870000 -124.917708 279.621882 -0.000000 0.429220 0.414352 -0.125165 27.043866 -40.750309 -0.000000 0.170620 0.228061 -0.363982
7.875000 -133.041220 290.381444 -0.000000 0.433747 0.404728 -0.125144 32.474421 -28.166179 -0.000000 0.166226 0.237223 -0.363851
7.880000 -140.327955 300.752796 -0.000000 0.437692 0.394519 -0.125133 39.748747 -15.014800 -0.000000 0.161993 0.246923 -0.363025
7.885000 -147.264483 310.844779 -0.000000 0.441179 0.383951 -0.125142 48.540717 -2.072231 -0.000000 0.158721 0.256794 -0.362998
7.890000 -153.648233 321.112973 -0.000000 0.444126 0.373401 -0.125168 58.376767 9.939656 -0.000000 0.155950 0.266928 -0.363044
7.895000 -159.038900 332.101028 -0.000000 0.446586 0.362667 -0.125184 68.754911 20.360725 -0.000000 0.153797 0.277312 -0.363025
7.900000 -163.354341 344.112328 -0.000000 0.448396 0.351808 -0.125154 79.131401 28.695459 -0.000000 0.152189 0.287840 -0.363015
7.905000 -166.414005 357.442501 -0.000000 0.449614 0.340875 -0.125127 88.954276 34.561885 -0.000000 0.151177 0.298539 -0.363066
7.910000 -168.199733 372.301433 -0.000000 0.450173 0.329963 -0.125156 97.687362 37.751017 -0.000000 0.150765 0.309441 -0.363033
7.915000 -168.635481 388.940640 -0.000000 0.450128 0.318955 -0.125108 104.848267 38.185131 -0.000000 0.151035 0.320460 -0.362933
7.920000 -167.994763 407.415923 -0.000000 0.449464 0.307982 -0.125165 109.993213 36.075561 -0.000000 0.151994 0.331460 -0.362936
7.925000 -166.128708 427.802817 -0.000000 0.448247 0.297053 -0.125122 112.839379 31.730811 -0.000000 0.153623 0.342415 -0.362860
